<svg width="283" height="89" viewBox="0 0 283 89" fill="none" xmlns="http://www.w3.org/2000/svg">
<path fill-rule="evenodd" clip-rule="evenodd" d="M186.363 26.8012C185.134 26.8012 184.058 25.7291 184.212 24.3508C184.212 24.1976 184.212 24.1976 184.212 24.0445C184.519 18.6843 182.676 15.4681 176.684 15.4681H157.94L152.87 38.2874H179.757C181.139 38.2874 182.215 39.5125 181.907 40.8909L179.296 52.6834C179.142 53.6023 178.22 54.368 177.145 54.368H149.336C149.336 54.368 146.264 68.3046 146.11 68.9172C145.034 73.3585 148.261 75.8089 150.258 76.7278C150.412 76.7278 150.412 76.8809 150.565 76.8809C151.487 77.3404 151.948 78.2593 151.641 79.1782L150.258 85.7636C150.105 86.6825 149.183 87.4482 148.107 87.4482H115.382C114 87.4482 113.078 86.223 113.232 84.8447L127.52 20.3689C128.903 14.7024 125.676 12.4052 123.218 11.4863L122.911 11.3331C121.835 11.0268 121.221 9.80162 121.528 8.72957L122.911 3.21621C123.064 2.14416 124.14 1.37842 125.215 1.37842H198.039C199.422 1.37842 200.498 2.60361 200.19 3.98195L195.428 25.1165C195.274 26.1886 194.352 26.8012 193.277 26.8012H186.363Z" fill="#F40027"/>
<path fill-rule="evenodd" clip-rule="evenodd" d="M76.8194 3.21604C76.973 2.14399 78.0485 1.37825 79.124 1.37825H114.768C116.151 1.37825 117.226 2.60344 116.919 3.98178L115.69 9.49515C115.536 10.414 114.768 11.0266 113.692 11.1798C113.539 11.1798 113.539 11.1798 113.385 11.1798C110.773 11.4861 105.857 12.405 101.862 15.468L72.2103 39.9718L94.9486 70.7548C99.4041 76.4213 101.555 77.4933 106.01 77.4933C107.393 77.4933 108.469 78.8717 108.161 80.25L107.086 85.7634C106.932 86.6823 106.011 87.448 104.935 87.448H87.2667C67.6012 87.448 62.2239 78.8717 45.7847 49.0076L41.0219 70.7548C40.2537 74.1241 43.1728 75.9619 45.1701 76.7276L45.4774 76.8808C46.5528 77.1871 47.0138 78.2591 46.8601 79.3311L45.4774 85.7634C45.3237 86.6823 44.4019 87.448 43.3265 87.448H2.30528C0.922542 87.448 -0.15292 86.0697 0.154355 84.6914L1.38345 79.178C1.53709 78.2591 2.45892 77.4934 3.38074 77.3402H3.53438C7.37531 76.8808 11.2162 74.5835 13.6744 62.9442L23.0463 20.3687C24.2754 14.7022 21.3563 12.5581 18.8981 11.6392C18.7445 11.6392 18.5908 11.4861 18.5908 11.4861C17.5154 11.1798 16.9008 9.9546 17.0545 8.7294L18.2836 3.06289C18.5908 1.99084 19.5127 1.2251 20.5881 1.2251H59.612C60.9947 1.2251 61.9166 2.45029 61.7629 3.82863L60.5338 9.49515C60.3802 10.2609 59.7656 11.0266 58.8438 11.1798H58.5365C56.6929 11.7924 53.7738 13.3239 52.852 16.8463L47.6283 40.7376L77.8949 15.6211C79.7385 14.0896 79.2776 12.0987 77.1267 11.3329C75.8976 11.0266 75.283 9.80145 75.4367 8.57625L76.8194 3.21604Z" fill="#F40027"/>
<path fill-rule="evenodd" clip-rule="evenodd" d="M281.157 3.21613C282.386 3.52243 283.308 4.90077 283 6.27911L278.391 26.9542C278.238 27.8731 277.316 28.6389 276.24 28.6389H269.634C268.405 28.6389 267.483 27.5668 267.483 26.3416C267.483 26.1885 267.483 26.0353 267.483 25.8822C267.79 19.1436 263.489 14.0897 253.809 14.0897C237.677 14.0897 226.001 27.2605 224.465 44.5664C222.928 62.4848 235.373 72.7458 252.734 72.7458C261.645 72.7458 268.712 71.0612 272.553 69.836C274.09 69.3765 275.626 70.7549 275.319 72.2864L273.321 83.0068C273.168 83.9257 272.553 84.6915 271.631 84.9977C268.098 86.0698 258.111 88.8265 242.901 88.8265C206.643 88.8265 192.047 67.9982 194.198 46.8636C196.349 27.72 208.794 0 258.111 0C267.637 0 275.165 1.53149 281.157 3.21613Z" fill="#F40027"/>
</svg>
