<svg width="377" height="93" viewBox="0 0 377 93" fill="none" xmlns="http://www.w3.org/2000/svg">
<g clip-path="url(#clip0_334_9254)">
<path d="M5.42822 60.302C5.539 61.8482 5.539 62.9526 5.76057 64.057C5.87136 64.6093 5.539 65.8241 3.98802 65.4928C3.21253 65.3824 2.32625 65.051 1.77233 64.4988C1.10762 63.9466 0.775266 63.1735 0.553697 62.29C-0.000226229 60.4124 -1.10807 55.0007 2.32625 55.0007C3.10174 55.0007 3.76645 55.332 4.20959 55.8842C5.09587 57.2096 5.31743 58.8662 5.42822 60.302ZM98.5981 37.3297C98.5981 37.3297 95.3853 10.1607 71.899 2.76096C58.8264 -1.32544 52.2901 -0.110563 44.3136 1.3252C34.8969 2.98185 23.5969 6.95781 15.5096 13.9157C9.97039 18.5544 4.43116 25.7332 2.21547 34.6791C1.10762 39.5386 0.996835 44.1772 1.88311 49.2576C2.21547 51.1352 4.8743 52.7918 4.8743 49.8098C5.09587 16.3455 32.792 10.1607 33.6783 9.93979C34.0106 9.82934 34.343 9.82934 34.6754 9.7189C35.1185 9.60846 35.5616 9.49801 36.0048 9.60845C36.2263 9.60845 36.4479 10.0502 36.1156 10.2711C33.8999 11.3755 25.2587 14.2471 20.6057 18.3335C15.9528 22.5303 9.74882 29.1569 7.7547 40.7535C7.42234 42.7415 7.08999 52.9023 8.08705 60.0811C8.64097 64.1675 11.5214 69.8001 13.2939 72.2299C18.39 78.746 27.142 84.1577 31.9057 85.9248C34.8969 87.0293 38.6636 87.3606 40.5469 87.8024C41.2116 88.0233 41.1009 88.7964 40.4362 88.9068C37.445 89.3486 30.1332 87.6919 24.04 84.8204C19.4979 82.6115 16.3959 79.5191 13.2939 76.2058C9.97039 72.5612 8.08705 68.8061 6.86842 69.027C4.76351 69.4688 6.53607 73.7761 7.53313 75.5432C10.6351 81.0653 16.839 86.1457 19.941 87.8024C29.5793 93.1037 39.4391 93.2141 43.8705 92.7723C62.9254 91.2261 74.5578 82.0593 79.7647 74.8805C82.7559 70.6837 89.6245 61.8482 89.4029 49.0367C89.4029 46.9383 89.6245 32.6911 84.8608 25.2914C83.7529 23.6348 80.5402 16.6768 68.4647 10.7129C67.5784 10.2711 63.3686 8.17269 60.045 8.06225C58.6048 8.06225 55.7244 7.84136 56.0568 6.18471C56.2784 4.96983 63.2578 6.62648 64.0333 6.73693C69.1294 8.17269 75.6657 12.0382 80.097 15.462C94.1667 26.175 92.7265 48.8159 92.7265 48.8159C92.0618 72.7821 78.1029 82.9429 67.9107 89.0173C67.6892 89.1277 67.0245 90.1217 67.246 90.453C67.4676 90.7843 67.9107 90.7843 68.4647 90.6739C72.3421 90.2321 76.1088 87.471 79.3215 84.8204C96.05 71.7881 96.8255 61.6273 97.8226 57.7618C99.2628 52.1292 99.2628 40.8639 98.5981 37.3297Z" fill="#DA1A32"/>
<path d="M73.1166 43.8458C72.6735 43.6249 72.2304 43.5145 71.7872 43.404C70.4578 42.8518 67.3558 42.0787 64.8078 41.416C63.3676 41.0847 61.9274 40.6429 61.7058 40.5325C61.4843 40.0907 60.8195 37.5505 60.4872 36.2252C60.3764 35.5625 60.2656 35.0103 60.1548 34.7894C59.9333 34.0163 59.6009 33.5746 58.8254 33.685C58.6039 33.685 54.8372 34.679 48.744 36.2252C44.645 37.3296 40.4352 38.3236 40.1028 38.4341C39.7705 38.4341 39.5489 38.655 36.8901 42.8518C36.1146 44.0667 35.1175 45.7233 34.8959 45.8338C34.7852 45.8338 34.2312 46.1651 33.5665 46.4964C31.9048 47.2695 28.692 48.7053 26.0332 50.2515C23.042 52.0186 17.2812 55.6632 16.8381 56.4363C16.6165 56.7677 16.6165 57.099 16.8381 57.3199C17.0596 57.6512 17.5028 57.7617 18.0567 57.7617C18.1675 57.7617 18.2783 57.7617 18.389 57.6512C18.943 57.5408 37.2224 53.8961 47.6362 52.1291C50.295 51.6873 53.5078 51.2455 57.3852 50.8037C66.9127 49.8097 76.551 49.2575 77.2157 49.2575C77.7696 49.2575 78.3235 49.0366 78.7667 48.5949C79.099 48.2635 79.2098 47.7113 79.2098 47.2695C79.3206 46.386 77.3265 45.5025 73.1166 43.8458Z" fill="white"/>
<path d="M355.727 62.6213H356.835L357.832 65.4929L358.829 62.6213H359.937V66.3764H359.272V63.284L358.165 66.3764H357.611L356.503 63.284V66.3764H355.838L355.727 62.6213ZM352.293 62.6213H355.284V63.284H354.176V66.3764H353.401V63.284H352.293V62.6213Z" fill="black"/>
<path d="M130.393 51.2455C131.944 49.4784 134.824 49.8097 137.372 49.1471C141.693 47.9322 148.45 44.8398 148.34 39.3176C148.118 34.4581 143.465 31.697 138.037 30.8135C134.159 43.9562 127.734 55.6632 121.53 67.1493C119.647 70.5731 117.874 75.7639 112.999 76.0953C110.562 73.9968 111.448 71.0149 111.781 68.9164C112.889 62.7316 115.769 55.9946 118.317 50.5828C121.862 42.9622 126.848 35.8939 131.833 30.4821C129.617 30.5926 128.177 30.9239 126.515 29.8195C125.075 23.4138 131.833 21.978 136.486 21.7571C147.121 21.0945 157.978 27.1688 157.646 38.1027C157.424 46.9382 147.897 52.7917 138.812 53.4544C136.043 53.6753 132.165 54.0066 130.393 51.2455ZM287.153 43.2936C288.815 40.0907 289.812 37.2192 291.584 33.3537C292.36 31.5866 296.68 23.7451 292.581 22.7511C292.581 22.7511 292.36 22.7511 292.249 22.7511C285.27 24.7391 280.284 37.9923 275.964 43.5145C270.646 43.404 264.22 42.9622 264.442 46.8278C264.664 50.0306 269.317 50.5828 271.975 52.129C270.978 55.2215 264.996 67.5911 270.092 70.794C275.41 74.1073 278.179 66.3762 279.398 63.0629C280.949 58.9765 282.057 55.3319 283.719 52.2395C287.928 51.9082 292.581 50.4724 295.905 50.4724C295.019 54.117 292.914 59.1974 295.129 63.836C299.007 66.3762 301.887 63.6152 303.217 61.075C305.432 57.099 305.654 50.0306 307.316 46.7173C309.864 45.1711 313.741 45.0607 314.295 41.7474C312.855 40.3116 310.639 41.7474 308.756 41.7474C309.31 39.0967 310.639 36.3356 311.525 33.685C312.412 31.0344 314.184 27.7211 312.079 24.96C307.759 25.7331 305.875 29.5986 303.992 32.691C301.998 36.1148 300.336 39.6489 298.342 42.8518C294.686 43.1831 291.252 43.5145 287.153 43.2936ZM179.249 23.8555C174.485 22.3093 166.73 26.0644 164.293 29.709C162.631 32.0284 162.077 36.667 165.179 37.5505C169.056 38.655 172.048 34.1268 173.709 32.3597C176.257 29.4882 178.473 27.5002 179.249 23.8555ZM360.381 30.4821C356.504 29.4882 354.953 32.4701 352.737 35.1208C350.965 37.3296 349.857 39.4281 348.749 39.7594C346.201 40.5325 342.213 38.1027 339.997 38.7654C339.222 38.9863 338.003 39.9803 338.003 41.1952C337.892 44.5085 341.991 45.0607 345.204 46.1651C343.764 49.2575 341.88 53.123 340.883 57.3199C339.997 61.1854 338.889 66.9285 341.105 71.0149C343.764 70.5731 344.429 67.3702 345.315 65.3823C348.417 58.5348 351.297 51.4664 355.175 45.5024C361.268 45.0607 367.472 43.404 372.235 42.1891C374.008 41.7474 376.334 41.9683 376.999 39.9803C375.781 38.5445 373.343 38.9863 371.349 38.9863C366.585 38.9863 361.6 39.2072 358.387 39.2072C359.495 37.1087 362.708 34.2372 360.381 30.4821ZM233.312 52.9022C234.419 48.2635 238.74 46.386 243.504 45.1711C244.833 45.1711 242.95 46.6069 243.061 47.38C242.728 48.2635 242.285 48.9262 242.396 50.1411C239.405 51.1351 237.3 52.9022 233.312 52.9022ZM208.939 57.099C211.819 54.5588 214.035 52.1291 217.248 49.0366C219.463 47.0487 225.224 43.5145 223.562 39.0967C222.676 36.667 218.577 36.2252 215.586 36.2252C211.376 36.2252 206.059 37.5505 201.738 37.3296C200.187 37.3296 198.857 36.0043 197.639 36.9983C193.761 45.1711 206.059 44.6189 212.152 43.9562C207.72 48.7053 199.965 51.5768 196.199 56.8781C195.202 58.3139 193.983 60.5227 194.869 62.7316C196.531 64.0569 198.304 63.1734 200.187 63.0629C208.274 62.8421 217.58 65.4927 223.673 62.6212C224.892 62.069 225.667 60.9645 226.886 60.1914C234.309 62.6212 239.515 58.3139 243.836 55.9946C246.495 59.5288 257.13 59.7496 258.016 55.111C256.355 52.2395 251.702 53.8961 250.815 50.6933C249.929 47.4904 255.579 42.7414 252.034 39.2072C250.705 38.3236 249.154 39.7594 248.378 39.2072C237.743 37.8819 226.664 43.6249 224.006 51.4664C223.341 53.5648 223.784 56.2155 224.227 57.9826C219.685 59.9705 213.813 57.7617 208.939 57.099ZM165.733 40.6429C164.293 39.9803 163.628 40.4221 162.963 41.3056C158.643 46.4964 148.672 54.7797 149.558 63.2838C149.891 66.3762 151.663 70.2418 155.652 68.9164C156.759 67.9225 156.316 66.4867 156.87 65.1614C160.083 57.3199 169.278 51.9082 165.733 40.6429ZM194.98 42.9622C191.435 41.6369 185.342 42.5205 180.024 42.1891C175.26 41.9683 169.056 40.2012 169.389 44.2876C169.721 49.1471 179.47 48.5949 184.566 48.1531C181.021 51.4664 176.701 54.6693 172.712 57.9826C169.167 60.9645 162.742 64.3883 164.514 71.0149C168.503 73.2237 173.266 71.0149 178.473 70.794C188.333 70.4627 196.753 73.4446 206.169 72.5611C209.825 72.2297 215.586 71.0149 215.254 67.0389C213.149 65.824 211.376 67.0389 209.382 67.2598C199.744 68.2538 190.659 62.9525 179.581 63.6152C182.461 60.6332 186.117 57.7617 189.33 54.6692C192.432 51.9082 196.863 48.374 194.98 42.9622ZM318.505 60.3019C319.724 56.6572 321.385 48.1531 316.178 46.8278C314.406 46.386 311.969 46.9382 310.75 48.0426C310.75 50.0306 312.855 49.5889 312.966 51.4664C311.636 55.3319 306.097 62.6212 310.861 67.0389C315.181 70.9044 322.161 66.2658 324.266 64.6092C325.927 63.3943 327.257 61.7376 328.697 61.5167C329.14 66.4867 331.134 70.0209 335.677 70.5731C337.006 69.1373 335.898 67.4807 335.898 65.6031C335.898 62.6212 337.006 59.1974 337.671 56.3259C338.335 53.2335 340.108 49.8097 337.781 47.0487C335.123 46.386 333.904 48.7053 332.796 50.1411C328.808 54.6692 324.709 58.2034 318.505 60.3019Z" fill="black"/>
</g>
<defs>
<clipPath id="clip0_334_9254">
<rect width="377" height="92.9933" fill="white"/>
</clipPath>
</defs>
</svg>
