<svg width="283" height="44" viewBox="0 0 283 44" fill="none" xmlns="http://www.w3.org/2000/svg">
<g clip-path="url(#clip0_334_9295)">
<path d="M10.7528 11.7589C10.545 10.9264 10.5969 10.0939 10.7008 9.62562C10.9605 8.32486 11.8436 6.92004 14.389 6.92004C16.7785 6.92004 18.129 8.37689 18.129 10.6142C18.129 11.3426 18.129 13.1117 18.129 13.1117H28.2065V10.25C28.2584 1.40482 20.3108 0 14.5967 0C7.42823 0 1.55837 2.3934 0.467511 9.00125C0.155837 10.8223 0.103891 12.4353 0.571402 14.4644C2.33756 22.7373 16.7265 25.1307 18.8043 30.3857C19.2199 31.3743 19.0641 32.623 18.9082 33.4035C18.5965 34.7563 17.6615 36.1611 14.9604 36.1611C12.415 36.1611 10.9086 34.7043 10.9086 32.467V28.5647H0V31.6865C0 40.7398 7.11656 43.4454 14.7006 43.4454C22.025 43.4454 27.9987 40.9479 28.9857 34.184C29.4532 30.6979 29.0896 28.4086 28.9337 27.5761C27.2715 18.9911 11.8956 16.4936 10.7528 11.7589ZM142.331 11.8109C142.175 11.0304 142.227 10.1459 142.279 9.72968C142.591 8.42892 143.422 7.0241 145.967 7.0241C148.305 7.0241 149.655 8.48095 149.655 10.6662C149.655 11.3947 149.655 13.1637 149.655 13.1637H159.629V10.354C159.629 1.61294 151.837 0.260152 146.175 0.260152C139.059 0.260152 133.241 2.60152 132.15 9.15735C131.89 10.9264 131.786 12.5393 132.254 14.5685C133.968 22.7373 148.201 25.1307 150.279 30.3337C150.642 31.3223 150.539 32.571 150.331 33.2994C150.019 34.6522 149.136 36.005 146.435 36.005C143.941 36.005 142.383 34.5482 142.383 32.3629V28.4606H131.63V31.5304C131.63 40.4796 138.643 43.1852 146.175 43.1852C153.396 43.1852 159.369 40.6878 160.304 34.0279C160.772 30.5418 160.408 28.3045 160.252 27.472C158.642 19.0431 143.474 16.5457 142.331 11.8109ZM234.171 33.9238L224.665 1.30076H209.653V41.4162H219.574L219.003 7.75253L229.236 41.4162H243.625V1.30076H233.652L234.171 33.9238ZM43.3227 1.30076L35.7906 41.8324H46.6992L52.3612 4.31852L57.8675 41.8324H68.7241L61.2959 1.30076H43.3227ZM104.411 1.30076L99.3201 32.9873L94.2294 1.30076H77.7107L76.8276 41.8324H86.957L87.2168 4.31852L94.1775 41.8324H104.411L111.372 4.31852L111.631 41.8324H121.761L120.878 1.30076H104.411ZM198.432 1.30076H188.199V31.2703C188.199 31.7906 188.199 32.3629 188.095 32.8312C187.887 33.8197 187.056 35.7969 184.199 35.7969C181.394 35.7969 180.563 33.8718 180.355 32.8312C180.251 32.4149 180.251 31.7906 180.251 31.2703V1.30076H170.018V30.3337C170.018 31.0621 170.07 32.623 170.122 32.9873C170.849 40.5317 176.771 43.0291 184.199 43.0291C191.628 43.0291 197.601 40.5837 198.329 32.9873C198.381 32.571 198.484 31.0621 198.432 30.3337V1.30076ZM268.663 19.0431V24.9746H272.819V30.854C272.819 31.3743 272.819 31.9466 272.715 32.4149C272.559 33.5076 271.52 35.3807 268.559 35.3807C265.65 35.3807 264.611 33.5076 264.455 32.4149C264.403 31.9466 264.352 31.3743 264.352 30.854V12.3312C264.352 11.6548 264.403 10.9784 264.559 10.4061C264.767 9.4175 265.65 7.49237 268.559 7.49237C271.676 7.49237 272.403 9.52156 272.611 10.4061C272.715 10.9784 272.715 11.967 272.715 11.967V14.2043H282.896V12.8515C282.896 12.8515 282.948 11.4467 282.844 10.1459C282.065 2.60152 275.78 0.208121 268.611 0.208121C261.443 0.208121 255.313 2.65355 254.43 10.198C254.326 10.8743 254.222 12.1231 254.222 12.9035V29.9175C254.222 30.6459 254.222 31.2182 254.378 32.571C255.053 39.9593 261.443 42.5608 268.611 42.5608C275.831 42.5608 282.169 39.9593 282.844 32.571C282.948 31.2182 283 30.6459 283 29.9175V19.0431H268.663Z" fill="black"/>
</g>
<defs>
<clipPath id="clip0_334_9295">
<rect width="283" height="43.3933" fill="white"/>
</clipPath>
</defs>
</svg>
